# xmcd
#
# Track frame offsets: 
#        182
#        14837
#        26360
#        35235
#        48060
#        59935
#        71337
#        86987
#        97687
#        111220
#        122372
#        141425
#        153692
#        164032
#        179182
#
# Disc length: 2537 seconds
#
# Revision: 3
# Processed by: cddbd v1.5.2PL0 Copyright (c) Steve Scherf et al.
# Submitted via: ExactAudioCopyFreeDBPlugin 1.0
#
DISCID=de09e70f
DTITLE=Various Artist - Elemental Rhythm and Blues - Smooth and Soulful
DYEAR=1996
DGENRE=R&B
TTITLE0=Aretha Franklin - Do Right Woman - Do Right Man
TTITLE1=Clarence Carter - Slip Away
TTITLE2=Chris Kenner - I Like It Like That, Part 1
TTITLE3=The Coasters - Zing! Went The Strings Of My Heart
TTITLE4=The Drifters - Up On The Road
TTITLE5=Doris Troy - Just One Look
TTITLE6=Ray Charles - (Night Time Is) The Right Time
TTITLE7=Carla Thomas - Gee Whiz (Look At His Eyes)
TTITLE8=Ben E. King - Spanish Harlem
TTITLE9=Gene Chandler - Duke Of Earl
TTITLE10=Arethra Franklin - Ain't No Way
TTITLE11=Aaron Neville - Tell It Like It Is
TTITLE12=The Marcels - Blue Moon
TTITLE13=The Flamingos - I Only Have Eyes For You
TTITLE14=Johnny Ace - Pledging My Love
EXTD=
EXTT0=
EXTT1=
EXTT2=
EXTT3=
EXTT4=
EXTT5=
EXTT6=
EXTT7=
EXTT8=
EXTT9=
EXTT10=
EXTT11=
EXTT12=
EXTT13=
EXTT14=
PLAYORDER=
